<svg width="48" height="48" viewBox="0 0 48 48" fill="none" xmlns="http://www.w3.org/2000/svg">
<path fill-rule="evenodd" clip-rule="evenodd" d="M29.8863 6.74957C29.8563 6.75946 29.7579 6.79983 29.6677 6.83929C29.504 6.91094 29.5032 6.91107 29.0448 6.92407C28.655 6.93514 28.5643 6.94425 28.4436 6.98449C28.3655 7.01055 28.2524 7.04147 28.1923 7.0532C28.1321 7.06495 27.9814 7.10969 27.8573 7.15266C27.7333 7.19561 27.5993 7.23076 27.5596 7.23076C27.52 7.23076 27.4259 7.25042 27.3507 7.27445C27.2667 7.30125 27.1536 7.31814 27.0581 7.31814C26.968 7.31814 26.8381 7.29975 26.7495 7.27445C26.6655 7.25042 26.5512 7.23076 26.4956 7.23076C26.44 7.23076 26.333 7.2111 26.2577 7.18707C26.1474 7.15185 26.0607 7.14338 25.8104 7.14338C25.4691 7.14338 25.4365 7.15021 24.9243 7.32893C24.774 7.38138 24.6282 7.4308 24.6002 7.43875C24.5723 7.4467 24.4745 7.48729 24.3831 7.52895C24.2636 7.58337 24.164 7.61065 24.0295 7.62583C23.9265 7.63746 23.7783 7.66264 23.7002 7.6818C23.5698 7.71376 23.5484 7.71372 23.4394 7.68123C23.2456 7.62343 22.1392 7.62959 21.9515 7.68951C21.8658 7.71686 21.7544 7.7332 21.6536 7.7332C21.5528 7.7332 21.4456 7.74893 21.3668 7.77528C21.2976 7.79843 21.2066 7.8238 21.1645 7.83166C20.7661 7.90613 20.167 8.15983 19.8093 8.40567C19.6951 8.48417 19.5328 8.59492 19.4486 8.65181C19.2759 8.76853 18.7613 9.28196 18.6505 9.44808C18.6104 9.50815 18.5418 9.60154 18.4979 9.65561C18.454 9.70968 18.3802 9.82273 18.3339 9.90683C18.2876 9.99094 18.2173 10.1089 18.1776 10.169C18.138 10.2291 18.0867 10.3323 18.0636 10.3984C18.0406 10.4644 17.9862 10.592 17.9428 10.6817C17.8993 10.7715 17.8638 10.8566 17.8638 10.8708C17.8638 10.885 17.8196 11.0318 17.7655 11.1969C17.7052 11.3808 17.6671 11.5371 17.6671 11.6003C17.6671 11.657 17.6461 11.7661 17.6204 11.8428C17.5491 12.0553 17.55 13.8909 17.6215 14.1095C17.6591 14.2244 17.6671 14.3037 17.6671 14.5608C17.6671 14.8155 17.6753 14.8982 17.7118 15.0113C17.7415 15.1031 17.763 15.2529 17.7757 15.4556C17.7867 15.6324 17.8089 15.7983 17.8283 15.8488C17.8468 15.8969 17.8623 16.0057 17.8629 16.0908C17.8635 16.1974 17.8808 16.2938 17.9185 16.4017C17.9485 16.4876 17.9731 16.5873 17.9731 16.6231C17.9731 16.659 17.9874 16.7305 18.0048 16.7819C18.0222 16.8334 18.051 16.9394 18.0687 17.0175C18.2457 17.7958 18.5354 18.1881 19.0697 18.3726C19.2059 18.4197 19.3568 18.4727 19.4049 18.4906C19.5289 18.5365 20.2825 18.5383 20.4332 18.4929C20.5023 18.4721 20.5825 18.4654 20.6622 18.4738C20.8065 18.4888 21.0494 18.371 21.1763 18.2243C21.2451 18.1448 21.2452 18.1448 21.4726 18.1298C21.852 18.1047 22.0608 17.9982 22.0608 17.8298C22.0608 17.5815 21.7928 17.364 21.4245 17.3136C21.2611 17.2912 21.0064 17.0524 20.9766 16.8935C20.9405 16.7015 21.0192 16.5835 21.5849 15.9808C21.9658 15.5751 22.203 15.267 22.3341 15.0078C22.5882 14.5053 22.8257 14.3041 22.994 14.4488L23.0554 14.5015L23.0663 15.6776C23.0744 16.5524 23.0841 16.8657 23.1041 16.9007C23.119 16.9266 23.146 17.0404 23.1643 17.1536C23.25 17.6862 23.5971 18.1448 24.1056 18.3973L24.3404 18.514H24.7253C25.0692 18.514 25.1182 18.5094 25.1866 18.4705C25.2543 18.4321 25.3074 18.4267 25.6457 18.424C26.622 18.4162 26.7381 17.9135 25.8392 17.5857C25.43 17.4364 25.2629 17.1298 25.4044 16.7882C25.4193 16.7521 25.45 16.6572 25.4725 16.5773C25.4951 16.4973 25.5391 16.3843 25.5704 16.3261C25.6018 16.2678 25.6663 16.1219 25.7138 16.0017C25.9833 15.3207 26.0695 15.259 26.2245 15.6368C26.2624 15.7294 26.3769 15.9673 26.4787 16.1656C27.1447 17.4618 27.7321 18.1117 28.3343 18.2186C28.4125 18.2325 28.5186 18.258 28.5701 18.2751C28.6898 18.3151 28.8459 18.3136 28.9573 18.2714C29.0054 18.2531 29.1726 18.2298 29.3289 18.2195C29.8892 18.1826 30.075 18.1176 30.1449 17.9339C30.2177 17.7426 29.9721 17.4987 29.5831 17.3759C29.2515 17.2713 29.153 17.1964 29.0417 16.9645L28.9683 16.8112V15.6077C28.9683 14.4621 28.9661 14.3962 28.9235 14.2417C28.8496 13.9735 28.8349 12.9552 28.9021 12.7579C28.9287 12.6799 28.9586 12.5656 28.9686 12.504C29.0649 11.9128 29.7783 11.1904 30.4251 11.029C30.4835 11.0145 30.5996 10.9699 30.6833 10.93C30.767 10.89 30.8703 10.8517 30.9128 10.8446C30.9921 10.8316 31.2634 10.7539 31.4876 10.6801C31.6652 10.6216 31.976 10.6234 32.1623 10.6841C32.9475 10.9397 33.7321 10.0272 33.3098 9.34931C33.0032 8.85709 32.9383 8.71123 32.9431 8.52451C32.947 8.37553 32.8915 8.24155 32.7437 8.04267C32.6735 7.94814 32.6733 7.94757 32.6624 7.62369C32.6503 7.2639 32.6436 7.24524 32.4786 7.11187C32.3554 7.01228 32.0844 7.01471 31.8755 7.11727C31.6981 7.20435 31.6178 7.20478 31.4383 7.11954C31.3348 7.07039 31.2458 7.04715 31.1104 7.03391C31.0083 7.02392 30.8902 7.00136 30.8481 6.98373C30.8061 6.9661 30.6929 6.9412 30.5968 6.92835C30.4895 6.91404 30.3543 6.87594 30.247 6.82981C30.0447 6.74279 29.9625 6.72453 29.8863 6.74957Z" fill="#A1BEC9"/>
</svg>
