<svg width="48" height="48" viewBox="0 0 48 48" fill="none" xmlns="http://www.w3.org/2000/svg">
<path fill-rule="evenodd" clip-rule="evenodd" d="M23.5826 21.5215H24.2626C24.2509 21.4204 24.2453 21.284 24.2453 21.0964L24.245 20.9194C24.2434 20.2776 24.242 19.674 24.4269 19.1553C24.4655 19.0467 24.4968 18.9508 24.5245 18.8657L24.5249 18.8645C24.6413 18.5072 24.6947 18.3434 24.9715 18.2454C25.2459 18.1484 25.6642 18.0972 25.839 18.0837L25.718 17.9017C25.944 17.8855 26.3771 17.8275 26.5654 17.8006L26.3233 17.6591C26.6299 17.6753 26.9756 17.5715 27.1101 17.5175L26.868 17.4367C27.2917 17.3558 28.1592 16.9919 28.0583 17.0121C27.9776 17.0282 27.796 16.9649 27.7153 16.9312C28.1834 16.7856 28.5156 16.5201 28.6232 16.4055L28.4013 16.3044C28.8532 16.1426 29.1007 15.7652 29.168 15.5967L28.8855 15.6776C28.8787 15.6506 28.9057 15.5562 29.0671 15.3945C29.2284 15.2328 29.4302 14.8014 29.5109 14.6059C29.4464 14.6707 29.2554 14.7138 29.168 14.7273C29.3777 14.4846 29.484 14.1679 29.5109 14.0398L29.2284 14.1207C29.406 13.9589 29.5445 13.568 29.5916 13.3928H29.3899L29.8741 12.766L29.6521 12.8266L29.9144 12.22C29.64 12.3171 29.0603 12.7188 28.8048 12.9075V12.6649C28.6111 12.7296 28.2802 13.0019 28.139 13.1299L28.0785 12.948C27.9009 13.0612 27.5607 13.3861 27.4127 13.5343L27.3724 13.3321C27.2271 13.4452 26.8546 13.7701 26.6864 13.9185L26.6461 13.7365C26.5331 13.8334 26.3838 14.1408 26.3233 14.2824L26.2022 14.0398C26.1215 14.2083 25.9561 14.5575 25.94 14.6059C25.9238 14.6544 25.866 14.5452 25.839 14.4846L25.6575 15.0912L25.4759 14.9497L25.3952 15.5967L25.2742 15.4351C25.254 15.4553 25.2177 15.5562 25.2338 15.7989C25.254 16.1022 25.0724 16.0011 24.9715 15.9404C24.8707 15.8798 24.9312 14.3633 25.0321 14.3229C25.0673 14.3111 25.1067 14.2994 25.1498 14.2866L25.1528 14.2857L25.1528 14.2857C25.4062 14.2104 25.784 14.0981 26.1619 13.7365C26.4029 13.5059 26.5368 13.4661 26.7478 13.4034L26.7479 13.4034C26.9254 13.3507 27.1576 13.2818 27.554 13.0693C28.1897 12.7285 28.262 12.1597 28.3188 11.713L28.3188 11.7129C28.3395 11.55 28.3581 11.4034 28.4013 11.29C28.478 11.0882 28.6913 11.0051 28.9395 10.9085C29.2137 10.8017 29.5306 10.6782 29.753 10.3599C30.1767 9.75331 30.1767 9.02537 29.9346 8.68166C29.7659 8.4422 29.7442 8.34994 29.7055 8.18612L29.7055 8.18595C29.6887 8.11464 29.6686 8.02977 29.632 7.91332C29.5351 7.60598 29.2016 7.52915 29.0469 7.52915C29.2371 7.14792 29.1224 6.78466 29.0242 6.47326L29.0242 6.47322L29.0065 6.41708C28.9565 6.25649 28.976 6.11085 28.9985 5.94306C29.0213 5.77283 29.0472 5.5798 29.0065 5.32523C28.9258 4.81975 28.6434 4.65799 27.8566 4.2536C27.2271 3.93009 26.5855 4.15925 26.3435 4.31426C25.9803 3.88965 25.5566 3.58644 24.7496 3.50556C23.9427 3.42469 23.3777 3.56622 23.0953 3.76842C22.9601 3.86519 22.8942 3.96661 22.8225 4.07708C22.7443 4.19742 22.6592 4.32851 22.4699 4.47609C22.3088 4.60166 22.1953 4.57604 22.0767 4.54925L22.0767 4.54925C21.9279 4.51565 21.7709 4.4802 21.5015 4.73895C21.1141 5.11099 21.2325 5.59495 21.3401 5.79043C20.4927 5.68933 20.1296 5.89153 19.7463 6.31613C19.4961 6.59318 19.5295 6.93047 19.5604 7.24377L19.5604 7.24378L19.5604 7.24379C19.5769 7.41067 19.5927 7.57074 19.5647 7.71127C19.5259 7.90556 19.4499 8.00184 19.3769 8.09428L19.3769 8.0943C19.2979 8.19426 19.2225 8.28974 19.2015 8.49983C19.1747 8.76918 19.282 8.89498 19.4759 9.12221L19.476 9.12224L19.4763 9.1226C19.5735 9.2365 19.6923 9.37584 19.8269 9.57147C20.1497 10.0405 20.6339 10.1578 20.8357 10.1578C20.7684 10.2118 20.5976 10.3519 20.4524 10.4814C20.4011 10.527 20.3433 10.5534 20.2851 10.58C20.1371 10.6474 19.9857 10.7164 19.9278 11.1081C19.8509 11.6285 20.1039 11.9284 20.4073 12.2881L20.4524 12.3415C20.6802 12.6127 20.8478 12.6219 21.168 12.6395L21.1681 12.6395L21.1688 12.6395C21.302 12.6468 21.4616 12.6556 21.6629 12.6853C22.2116 12.7661 22.174 12.8807 22.0865 12.9279C22.1304 13.1184 22.2167 13.1283 22.4068 13.1502L22.4069 13.1502L22.4077 13.1503C22.4797 13.1586 22.5666 13.1686 22.6716 13.1907C22.9783 13.2555 23.2298 13.2177 23.3172 13.1907C23.4181 13.3929 23.5391 13.5547 23.8417 13.6154C24.0675 13.6606 24.1923 13.7734 24.3081 13.8782L24.3083 13.8783C24.3476 13.9139 24.3859 13.9486 24.4269 13.9793C24.5344 14.0602 24.4986 14.2668 24.4627 14.4735L24.4627 14.4736C24.4448 14.5769 24.4269 14.6802 24.4269 14.7678C24.4269 14.8947 24.4269 14.9509 24.4042 14.9956C24.3861 15.0311 24.3538 15.0593 24.2956 15.1099C24.2754 15.1276 24.2521 15.1479 24.2251 15.1722C24.1708 15.2212 24.1196 15.2654 24.0706 15.3077C23.974 15.391 23.8862 15.4668 23.8014 15.5562C23.9359 15.4484 24.0798 15.4351 24.2251 15.4351C24.39 15.4351 24.4051 15.5685 24.4216 15.7142L24.4217 15.7142C24.4233 15.7289 24.425 15.7438 24.4269 15.7586C24.4361 15.8328 24.3901 15.941 24.3338 16.0736L24.3335 16.0743L24.3335 16.0745C24.2671 16.2306 24.1863 16.4205 24.1646 16.628C24.1542 16.7266 24.1478 16.8119 24.1424 16.8848C24.1266 17.0962 24.1185 17.2046 24.0435 17.2346C23.9427 17.2751 23.8014 16.992 23.8014 16.3652C23.8014 15.8637 23.6669 15.334 23.5997 15.1318L23.4786 15.2127C23.4947 15.0348 23.4046 14.8016 23.3576 14.7072C23.3737 14.8366 23.2701 14.9498 23.2163 14.9903C23.2486 14.8124 23.176 14.6196 23.1356 14.5454L23.0549 14.7072C23.0711 14.5293 22.9272 14.2691 22.8532 14.1613L22.7523 14.2422C22.6555 13.951 22.4564 13.7299 22.369 13.6558L22.2278 13.7973C22.2439 13.6032 21.9251 13.3255 21.7637 13.2109V13.4334C21.7153 13.2555 21.4073 13.0627 21.2594 12.9885V13.2109C21.1948 13.0977 20.8559 12.9346 20.6945 12.8672V13.1099C20.5654 13.0128 20.3044 12.9481 20.1901 12.9279V13.1099L19.9682 12.9885C20.0085 13.0694 20.0731 13.215 20.0085 13.1503C19.944 13.0856 19.7395 12.9751 19.6454 12.9279V13.1503C19.5485 13.0533 19.2015 12.9616 19.0401 12.9279L19.1612 13.1099L18.3945 12.9885C18.5075 13.0533 18.7106 13.2581 18.798 13.3525L18.6165 13.4334C18.8101 13.5142 19.1276 13.8445 19.2621 13.9995L18.9594 14.04C19.0885 14.0885 19.3091 14.4646 19.4033 14.6465L19.1208 14.6061C19.1692 14.7193 19.5176 15.0577 19.6857 15.2127H19.4033C19.484 15.245 19.9614 15.6575 20.1901 15.8597H19.9278C20.0247 15.9406 20.5331 16.1495 20.7752 16.2439L20.6743 16.3652C20.7389 16.3814 21.1988 16.3989 21.4208 16.4056L21.2594 16.4865C21.3401 16.5027 21.7368 16.5202 21.9251 16.5269L21.8243 16.628L22.2883 16.5471L22.1874 16.6482C22.3876 16.5947 22.4553 16.612 22.525 16.6299L22.5251 16.6299L22.5253 16.6299C22.5608 16.639 22.5969 16.6482 22.6514 16.6482C23.3576 16.837 23.7207 17.275 23.8014 17.74C23.9001 18.1686 23.8379 18.5838 23.7678 19.0513L23.7678 19.0514C23.7519 19.1573 23.7356 19.2658 23.7207 19.3778C23.6562 19.8631 23.3307 20.2877 23.1962 20.4292C23.2231 20.4022 23.3253 20.3321 23.519 20.2674C23.6894 20.2105 23.6599 20.4641 23.6204 20.8027L23.6204 20.803L23.6204 20.8031C23.6038 20.9454 23.5855 21.1026 23.5795 21.2582C23.5764 21.3402 23.5776 21.4282 23.5826 21.5215ZM24.6488 17.0323C24.7133 16.6603 24.8236 16.4864 24.8707 16.4459C25.0138 16.3344 25.0316 16.361 25.0624 16.407L25.0624 16.407L25.0626 16.4073C25.0708 16.4195 25.0799 16.4332 25.0927 16.4459C25.1411 16.4945 25.0724 16.7627 25.0321 16.8908L24.9111 16.7897V17.2951C24.9111 17.4228 24.8467 17.5021 24.7637 17.6044L24.7636 17.6045C24.7152 17.6641 24.6605 17.7315 24.6085 17.8209C24.4672 18.0635 24.4067 17.9219 24.5075 17.6591C24.5791 17.4727 24.5796 17.4693 24.6027 17.3172C24.6121 17.2549 24.6253 17.1675 24.6488 17.0323Z" fill="#84BADB"/>
</svg>
