<svg width="48" height="49" viewBox="0 0 48 49" fill="none" xmlns="http://www.w3.org/2000/svg">
<path fill-rule="evenodd" clip-rule="evenodd" d="M28.416 4.81584C28.366 4.90864 28.3145 4.99177 28.3017 5.0006C28.2889 5.00944 28.243 5.08065 28.1998 5.15886C28.1445 5.25885 28.0894 5.31171 28.0142 5.33697C27.9554 5.35673 27.8892 5.39757 27.8671 5.42774C27.845 5.45791 27.8104 5.48259 27.7902 5.48259C27.77 5.48259 27.7535 5.50428 27.7535 5.53079C27.7535 5.5573 27.7422 5.57899 27.7284 5.57899C27.7009 5.57899 27.5936 6.11791 27.5906 6.27093C27.5884 6.37982 27.4868 6.78755 27.4535 6.82078C27.4413 6.83292 27.4315 6.86576 27.4316 6.89375C27.4318 6.92171 27.3864 7.06029 27.3307 7.20168C27.2751 7.34306 27.2185 7.48765 27.2049 7.523C27.1914 7.55834 27.1561 7.6451 27.1265 7.71579C27.0273 7.95303 27.0201 7.97234 26.979 8.11745C26.9364 8.2677 26.6118 8.94827 26.4878 9.14729C26.3172 9.42119 25.9079 9.82047 25.7978 9.82047C25.7751 9.82047 25.7565 9.83387 25.7565 9.85025C25.7565 10.0552 24.5562 10.1051 24.2028 9.91484C24.1721 9.89829 24.096 9.88473 24.0337 9.88473C23.9715 9.88473 23.9206 9.87355 23.9206 9.85989C23.9206 9.83759 23.7529 9.78416 23.534 9.7367C23.4897 9.72709 23.4245 9.70771 23.3891 9.69367C23.3537 9.67963 23.2232 9.63522 23.0992 9.59506C22.9752 9.55486 22.86 9.50962 22.8431 9.49448C22.8263 9.47938 22.7867 9.46701 22.7552 9.46701C22.7236 9.46701 22.5741 9.40917 22.4228 9.33848C22.2716 9.26779 22.1385 9.20995 22.1272 9.20995C22.0865 9.20995 21.2867 8.80052 21.2472 8.75945C21.2383 8.75023 21.1948 8.72475 21.1505 8.70281C21.1062 8.68086 20.9906 8.61968 20.8935 8.56688C20.7795 8.5049 20.6705 8.47091 20.5859 8.47091C20.5138 8.47091 20.439 8.4551 20.4196 8.43575C20.3971 8.41329 20.3103 8.40764 20.1796 8.42004C19.7292 8.46287 19.0147 8.47646 18.9478 8.4435C18.9104 8.42505 18.8145 8.40311 18.7348 8.39472C18.6551 8.3863 18.4232 8.35712 18.2195 8.32984C17.283 8.20456 14.9209 8.27776 14.6044 8.44189C14.5736 8.45786 14.5322 8.47091 14.5124 8.47091C14.4926 8.47091 14.4491 8.50538 14.4159 8.54751C14.3741 8.60059 14.3084 8.63073 14.2019 8.64574C13.9751 8.67768 13.9356 8.69419 13.9356 8.75721C13.9356 8.89145 14.3621 9.01716 14.8176 9.01716C15.3407 9.01716 15.2562 9.10491 14.6925 9.14694C13.8911 9.20674 13.7295 9.29414 14.0911 9.47209C14.2925 9.57115 15.2331 9.60136 15.5152 9.51778C15.7006 9.46287 15.997 9.44924 15.997 9.49564C15.997 9.51135 15.9499 9.53083 15.8923 9.53889C15.5612 9.58523 15.0977 9.66649 15.0123 9.69316C14.9579 9.71016 14.8609 9.72407 14.7968 9.72407C14.7327 9.72407 14.672 9.73728 14.662 9.75341C14.652 9.76954 14.5829 9.79303 14.5084 9.80559C14.4339 9.81812 14.3506 9.8402 14.3233 9.85462C14.2961 9.86905 14.234 9.88923 14.1852 9.89948C14.0542 9.92702 14.0775 10.004 14.2401 10.0802C14.4786 10.192 15.701 10.1259 15.9546 9.9874C16.0616 9.92901 16.0868 9.94347 16.0015 10.0143C15.9597 10.0491 15.8989 10.0775 15.8665 10.0775C15.8341 10.0775 15.7986 10.092 15.7876 10.1097C15.7767 10.1273 15.7353 10.1418 15.6956 10.1418C15.6558 10.1418 15.6096 10.1545 15.5928 10.1701C15.576 10.1856 15.4027 10.2608 15.2079 10.3372C14.5719 10.5865 14.7689 10.84 15.4817 10.6895C15.8364 10.6145 15.8456 10.6138 15.8815 10.6596C15.9007 10.6841 15.9745 10.7316 16.0453 10.7651C16.1162 10.7986 16.1982 10.8377 16.2276 10.8519C16.257 10.8661 16.331 10.8697 16.3921 10.8598C16.486 10.8446 16.5058 10.8523 16.5209 10.9099C16.5431 10.9948 16.7246 11.0736 16.8978 11.0736C16.9693 11.0736 17.0277 11.0876 17.0277 11.1046C17.0277 11.1688 17.2684 11.2986 17.3876 11.2986C17.4533 11.2986 17.5158 11.3126 17.5264 11.3298C17.5549 11.3758 17.7348 11.4506 17.8724 11.4738C17.9384 11.4849 18.0471 11.5182 18.114 11.5478C18.1808 11.5775 18.3225 11.6044 18.4288 11.6076C18.5787 11.6121 18.6655 11.6369 18.8153 11.7181C18.9216 11.7756 19.0801 11.8598 19.1675 11.9051C19.2549 11.9503 19.3622 12.0204 19.4057 12.0607C19.4562 12.1073 19.5251 12.134 19.5952 12.134C19.6631 12.134 19.7459 12.1648 19.811 12.2143C19.869 12.2585 19.9388 12.2947 19.9659 12.2947C19.9931 12.2947 20.0327 12.3156 20.0541 12.3412C20.0753 12.3668 20.1456 12.4052 20.2101 12.4264C20.2746 12.4476 20.347 12.4845 20.3709 12.5084C20.3948 12.5322 20.435 12.5517 20.4603 12.5517C20.4856 12.5517 20.5063 12.5662 20.5063 12.5839C20.5063 12.6015 20.5356 12.616 20.5714 12.616C20.6072 12.616 20.6939 12.6521 20.764 12.6963C20.8342 12.7405 20.9181 12.7766 20.9505 12.7766C20.9829 12.7766 21.0375 12.7979 21.0719 12.8238C21.1063 12.8498 21.1656 12.8715 21.2036 12.872C21.2417 12.8726 21.3359 12.909 21.413 12.953C21.4901 12.9969 21.5767 13.0331 21.6056 13.0333C21.6344 13.0335 21.676 13.0554 21.6981 13.0819C21.7202 13.1084 21.769 13.1303 21.8067 13.1305C21.8444 13.1307 21.9383 13.1669 22.0154 13.2108C22.0925 13.2548 22.1886 13.2908 22.2289 13.2908C22.2692 13.2908 22.3542 13.3125 22.4178 13.339C22.4814 13.3655 22.5847 13.3872 22.6472 13.3872C22.7098 13.3872 22.761 13.4002 22.761 13.4161C22.761 13.4583 22.9572 13.5287 23.0487 13.5194C23.0918 13.515 23.1913 13.5359 23.2698 13.5658C23.3867 13.6104 23.4173 13.6125 23.439 13.5775C23.4729 13.5226 23.6307 13.5981 23.6307 13.6693C23.6307 13.7049 23.6569 13.7107 23.7434 13.6945L23.8561 13.6734V13.8015C23.8561 13.872 23.8706 13.9386 23.8883 13.9495C23.9061 13.9604 23.9206 13.9969 23.9206 14.0306C23.9206 14.1276 24.1554 14.1919 24.2317 14.1157C24.2784 14.0691 24.3393 14.0977 24.3398 14.1664C24.3404 14.2622 24.3737 14.3089 24.452 14.3238C24.5231 14.3373 24.532 14.7987 24.4652 15.0099C24.2282 15.7591 24.2286 15.7536 24.3909 15.9008C24.5017 16.0013 24.506 16.0131 24.488 16.1666C24.4572 16.4305 24.4129 16.7037 24.3761 16.8575C24.34 17.008 24.2199 17.6115 24.1803 17.8416C24.1677 17.9145 24.1085 18.0725 24.0486 18.1925C23.9888 18.3126 23.9295 18.477 23.9168 18.5579C23.8606 18.9182 23.8007 19.2269 23.7807 19.2592C23.7687 19.2785 23.7797 19.3151 23.8051 19.3404C23.8372 19.3724 23.8458 19.4272 23.8334 19.5197C23.8075 19.7118 23.8981 19.7032 23.9528 19.5084C23.9794 19.4134 24.0113 19.3637 24.0455 19.3635C24.1083 19.3632 24.1782 19.2246 24.1782 19.1003C24.1782 19.0508 24.1909 19.0103 24.2065 19.0103C24.2221 19.0103 24.2674 18.9233 24.3073 18.8169C24.3472 18.7104 24.3925 18.6156 24.4079 18.6061C24.4233 18.5966 24.4359 18.5076 24.4359 18.4082C24.4359 18.2429 24.4655 18.1028 24.5361 17.9339C24.5671 17.8598 24.6408 17.651 24.7175 17.4198C24.7469 17.3314 24.8042 17.1955 24.845 17.1178C24.8857 17.04 24.919 16.9567 24.919 16.9326C24.919 16.9085 24.9314 16.8636 24.9465 16.8329C25.0169 16.69 25.0776 16.5452 25.0979 16.4719C25.143 16.3093 25.3512 16.2236 25.4535 16.3257C25.5558 16.4277 25.682 16.3575 25.7969 16.1345C25.8813 15.9706 25.92 15.7813 26 15.141C26.0186 14.9918 26.0851 14.8459 26.1584 14.7934C26.2135 14.754 26.2718 14.7661 26.2718 14.8171C26.2718 14.8438 26.3005 14.8653 26.3363 14.8653C26.3717 14.8653 26.4007 14.8508 26.4007 14.8331C26.4007 14.8155 26.4442 14.801 26.4973 14.801C26.5505 14.801 26.5939 14.8155 26.5939 14.8331C26.5939 14.8793 26.7148 14.8728 26.7453 14.8249C26.857 14.65 27.0958 14.5715 27.2586 14.6562C27.3093 14.6826 27.3879 14.7043 27.4333 14.7044C27.4786 14.7045 27.5438 14.7258 27.5782 14.7518C27.6126 14.7777 27.6893 14.7994 27.7485 14.8C27.8078 14.8005 27.8948 14.8278 27.9418 14.8606C27.9888 14.8933 28.0958 14.9292 28.1796 14.9402C28.2633 14.9512 28.3575 14.9743 28.3889 14.9916C28.4203 15.0089 28.5728 15.0322 28.7277 15.0434C28.8827 15.0546 29.0176 15.077 29.0275 15.093C29.0375 15.1091 29.0738 15.1223 29.1082 15.1223C29.1426 15.1223 29.1707 15.1369 29.1707 15.1547C29.1707 15.1726 29.2323 15.185 29.3076 15.1823C29.5387 15.174 30.28 15.2232 30.3141 15.2492C30.3319 15.2626 30.4904 15.2766 30.6665 15.2801C30.8425 15.2837 31.0003 15.2952 31.0172 15.3056C31.0535 15.3279 31.2825 15.3422 31.8763 15.3591C32.2822 15.3706 32.6815 15.4416 32.6815 15.5023C32.6815 15.5342 32.8387 15.5968 32.9845 15.6229C33.0538 15.6353 33.148 15.665 33.1939 15.689C33.2398 15.7129 33.3382 15.7325 33.4124 15.7326C33.4867 15.7327 33.5564 15.7473 33.5673 15.765C33.5783 15.7826 33.6217 15.7971 33.6639 15.7971C33.7061 15.7971 33.7496 15.8116 33.7606 15.8292C33.7987 15.8908 33.9746 15.8664 33.9928 15.7971C34.0143 15.715 34.0717 15.715 34.131 15.7971C34.1565 15.8324 34.2014 15.8614 34.2307 15.8614C34.2599 15.8614 34.3474 15.8837 34.4249 15.911C34.5595 15.9585 34.5682 15.9578 34.6193 15.895C34.685 15.8142 34.726 15.8123 34.8007 15.8868C34.893 15.9789 35.0336 16.0224 35.2581 16.0284C35.4663 16.0339 35.4679 16.0347 35.6186 16.1992C35.7751 16.3701 36.0483 16.5361 36.1728 16.5361C36.2119 16.5361 36.2613 16.5535 36.2826 16.5747C36.3771 16.669 36.3962 16.5436 36.3089 16.4017C36.1662 16.1697 36.1456 16.1389 36.1031 16.0926C36.0805 16.0681 36.0419 16.0097 36.0172 15.9627C35.9926 15.9158 35.9422 15.8562 35.9052 15.8302C35.8683 15.8042 35.8381 15.7708 35.8381 15.7561C35.8381 15.7414 35.7947 15.6831 35.7416 15.6267C35.6053 15.4815 35.6354 15.4307 35.7737 15.5726C35.7825 15.5817 35.8912 15.6756 36.0152 15.7813C36.1392 15.887 36.2706 16.0024 36.3072 16.0379C36.3785 16.107 36.4688 16.1699 36.5467 16.2046C36.5733 16.2165 36.6023 16.2345 36.6111 16.2446C36.7138 16.362 37.1587 16.4249 37.1587 16.3221C37.1587 16.2561 36.7328 15.8066 36.2407 15.3532C35.7132 14.8672 35.5753 14.731 35.5931 14.7134C35.611 14.6955 35.7251 14.7896 35.8493 14.9245C35.8874 14.966 35.9569 15.0198 36.0038 15.0441C36.0506 15.0684 36.1303 15.1285 36.1809 15.1776C36.3967 15.387 37.0123 15.7971 37.1109 15.7971C37.1372 15.7971 37.1587 15.8116 37.1587 15.8292C37.1587 15.8469 37.1868 15.8614 37.2212 15.8614C37.2556 15.8614 37.2927 15.8758 37.3036 15.8935C37.3298 15.9357 37.513 15.9352 37.513 15.8929C37.513 15.874 37.5471 15.8687 37.5935 15.8803C37.7557 15.9209 37.6897 15.7784 37.4647 15.6019C37.3495 15.5116 37.2553 15.4246 37.2553 15.4086C37.2553 15.3925 37.2336 15.3794 37.207 15.3794C37.1804 15.3794 37.1587 15.3659 37.1587 15.3494C37.1587 15.3329 37.1267 15.3093 37.0877 15.297C37.0048 15.2707 36.9332 15.2058 36.9332 15.1567C36.9332 15.1045 36.9631 15.1146 37.0679 15.2026C37.1205 15.2468 37.1842 15.283 37.2095 15.283C37.2347 15.283 37.2553 15.2974 37.2553 15.3151C37.2553 15.3328 37.2809 15.3472 37.3121 15.3472C37.3434 15.3472 37.4235 15.3764 37.4901 15.412C37.628 15.4857 37.6671 15.4521 37.6273 15.294C37.6134 15.2387 37.6206 15.1997 37.6477 15.1829C37.6811 15.1624 37.6814 15.149 37.6496 15.1172C37.6276 15.0953 37.6096 15.0571 37.6096 15.0324C37.6096 14.8765 37.2543 14.4529 36.9574 14.2547C36.8912 14.2106 36.8369 14.1636 36.8368 14.1503C36.8367 14.137 36.8239 14.1262 36.8086 14.1262C36.7931 14.1262 36.6396 14.0322 36.4674 13.9173C36.2952 13.8025 36.1411 13.7085 36.125 13.7085C36.1089 13.7085 36.0958 13.694 36.0958 13.6764C36.0958 13.6587 36.0762 13.6442 36.0523 13.6442C36.0284 13.6442 35.9488 13.6008 35.8754 13.5478C35.802 13.4948 35.7274 13.4514 35.7095 13.4514C35.6917 13.4514 35.677 13.4386 35.677 13.4231C35.677 13.4074 35.6517 13.3862 35.6207 13.3758C35.5576 13.3546 35.4591 13.2937 35.3973 13.2376C35.3748 13.2171 35.3125 13.181 35.259 13.1574C35.2055 13.1338 35.1617 13.1035 35.1617 13.0901C35.1617 13.0768 35.141 13.0658 35.1157 13.0658C35.0904 13.0658 35.0505 13.0478 35.0271 13.0257C34.9709 12.9726 34.7533 12.873 34.6935 12.873C34.6676 12.873 34.6463 12.8586 34.6463 12.8409C34.6463 12.8232 34.6173 12.8088 34.5819 12.8088C34.5465 12.8088 34.5175 12.7961 34.5175 12.7807C34.5175 12.7504 33.9738 12.5517 33.891 12.5517C33.8635 12.5517 33.8411 12.5401 33.8411 12.5258C33.8411 12.5115 33.7795 12.4729 33.7042 12.4399C33.6289 12.407 33.4935 12.3247 33.4033 12.257C33.3131 12.1894 33.2292 12.134 33.2168 12.134C33.2044 12.134 33.1622 12.104 33.1231 12.0673C33.0089 11.9603 32.629 11.7163 32.5765 11.7163C32.55 11.7163 32.4763 11.6946 32.4127 11.6681C32.3322 11.6345 32.1822 11.6199 31.9191 11.6199C31.5351 11.6199 31.0253 11.5809 30.5879 11.518C30.4551 11.4989 30.2594 11.4709 30.1531 11.4558C29.7419 11.3972 29.0445 11.2419 28.8647 11.1689C28.8293 11.1545 28.7641 11.136 28.7198 11.1278C28.5323 11.0929 27.9523 10.858 27.7715 10.7436C27.5469 10.6016 27.2381 10.1292 27.2381 9.92756C27.2381 9.90401 27.2236 9.88473 27.2059 9.88473C27.1882 9.88473 27.1737 9.82776 27.1737 9.7581C27.1737 9.68844 27.1592 9.62253 27.1415 9.61161C27.044 9.55145 27.15 8.86649 27.3528 8.24688C27.396 8.11481 27.4314 7.97655 27.4314 7.93963C27.4314 7.90268 27.4602 7.81306 27.4953 7.74047C27.5572 7.61271 27.5871 7.52869 27.7042 7.15348C27.7345 7.05628 27.816 6.86432 27.8853 6.72689C27.9545 6.58946 28.0112 6.45572 28.0112 6.42966C28.0112 6.4036 28.0224 6.3823 28.0361 6.3823C28.0952 6.3823 28.2689 5.91631 28.2695 5.75572C28.2698 5.7027 28.2977 5.5581 28.3316 5.43439C28.3655 5.31068 28.403 5.17332 28.4147 5.12913C28.4265 5.08495 28.471 4.97249 28.5136 4.87924C28.6455 4.59008 28.5657 4.53822 28.416 4.81584ZM16.2869 9.43488C16.2869 9.45255 16.2353 9.46701 16.1723 9.46701C16.104 9.46701 16.0657 9.454 16.0775 9.43488C16.0885 9.41721 16.14 9.40275 16.1922 9.40275C16.2443 9.40275 16.2869 9.41721 16.2869 9.43488ZM36.5145 14.8331C36.5145 14.8508 36.5347 14.8653 36.5593 14.8653C36.584 14.8653 36.6126 14.8869 36.6228 14.9135C36.6329 14.94 36.6283 14.9617 36.6124 14.9617C36.5965 14.9617 36.5618 14.94 36.5352 14.9135C36.5086 14.8869 36.4714 14.8653 36.4523 14.8653C36.4334 14.8653 36.4179 14.8508 36.4179 14.8331C36.4179 14.8155 36.4396 14.801 36.4662 14.801C36.4927 14.801 36.5145 14.8155 36.5145 14.8331ZM36.8607 15.0822C36.8805 15.1412 36.7825 15.1312 36.7596 15.0718C36.7461 15.0366 36.7564 15.0244 36.7938 15.0316C36.8232 15.0373 36.8534 15.0601 36.8607 15.0822ZM24.7373 16.2309C24.7639 16.2574 24.8011 16.2791 24.8201 16.2791C24.8391 16.2791 24.8546 16.2935 24.8546 16.3112C24.8546 16.3289 24.8768 16.3433 24.9039 16.3433C24.9851 16.3433 24.9886 16.4149 24.9175 16.6174C24.8804 16.7229 24.8421 16.8418 24.8325 16.8816C24.8228 16.9213 24.8021 16.9539 24.7864 16.9539C24.7708 16.9539 24.758 16.9891 24.758 17.0323C24.758 17.0755 24.7435 17.1197 24.7258 17.1306C24.7081 17.1415 24.6936 17.1828 24.6936 17.2225C24.6936 17.2621 24.6813 17.3082 24.6664 17.325C24.6514 17.3418 24.6065 17.4495 24.5666 17.5644C24.3563 18.1696 24.2417 18.3548 24.2434 18.0865C24.2438 18.0203 24.2585 17.9082 24.2759 17.8375C24.3451 17.5571 24.4108 17.2504 24.4377 17.0824C24.4962 16.7166 24.5243 16.5817 24.5601 16.4939C24.5804 16.4441 24.597 16.3634 24.597 16.3145C24.597 16.1775 24.6513 16.1451 24.7373 16.2309Z" fill="#289DF6"/>
</svg>
