<svg width="48" height="48" viewBox="0 0 48 48" fill="none" xmlns="http://www.w3.org/2000/svg">
<path fill-rule="evenodd" clip-rule="evenodd" d="M23.9824 4.71761C23.9849 4.72211 23.9864 4.72708 23.9865 4.73224C23.9893 4.92677 23.8799 5.18425 23.8168 5.30478C23.8115 5.31488 23.801 5.32098 23.7896 5.32098H23.6066C23.5404 5.32098 23.5043 5.39811 23.4631 5.48619C23.4417 5.53197 23.4188 5.58072 23.3897 5.62312C23.349 5.68226 23.1744 5.79777 22.9769 5.92851C22.7602 6.07187 22.5159 6.23353 22.3902 6.35916C22.2388 6.51062 22.2167 6.64668 22.1764 6.89562C22.1528 7.04139 22.1229 7.22586 22.0571 7.47483C21.8789 8.14887 21.7317 9.0631 21.7472 9.35751C21.755 9.50495 21.8016 9.56302 21.853 9.62705C21.9043 9.69089 21.9603 9.76066 21.9874 9.93084C22.0212 10.1434 22.052 10.1542 22.0967 10.1697C22.1237 10.179 22.1558 10.1902 22.1966 10.2485C22.2445 10.3169 22.2637 10.3733 22.2835 10.4316C22.3086 10.5052 22.3348 10.582 22.4213 10.6901C22.517 10.8097 22.588 10.8662 22.6273 10.8882C22.6415 10.8961 22.6522 10.9117 22.6503 10.9278L22.5685 11.6198C22.5633 11.6457 22.5561 11.7175 22.5685 11.798C22.578 11.86 22.6279 11.8801 22.6681 11.8838C22.6856 11.8853 22.7015 11.8978 22.7022 11.9153C22.704 11.9577 22.7048 12.0331 22.7002 12.1389C22.6924 12.3171 22.6692 12.5805 22.615 12.9524C22.5738 13.2347 22.5526 13.6649 22.5461 13.8736C22.5456 13.8911 22.5597 13.9054 22.5772 13.9054H22.5838C22.601 13.9054 22.615 13.9193 22.615 13.9365V14.0681C22.615 14.0827 22.6152 14.0994 22.6154 14.118C22.6172 14.2571 22.6204 14.5043 22.5452 14.8119C22.46 15.1605 22.3438 15.4937 22.1733 15.8578C22.0414 16.1396 22.0441 16.2404 22.052 16.5444C22.0544 16.6333 22.0571 16.7395 22.0571 16.8728C22.0571 17.3283 22.1731 18.1152 22.2368 18.4866C22.24 18.5056 22.2252 18.5222 22.206 18.525C22.1428 18.5341 22.1364 18.5816 22.1069 18.8005C22.0954 18.886 22.0804 18.9975 22.0571 19.1428C21.9931 19.5427 22.0062 19.5463 22.1216 19.5779C22.1739 19.5922 22.2472 19.6122 22.3438 19.6774C22.4788 19.7686 22.5065 19.8215 22.5312 19.8688C22.5633 19.9302 22.5905 19.9822 22.8396 20.0958C23.2813 20.2972 23.413 20.3282 23.6686 20.2585C23.8639 20.2052 23.8513 20.0933 23.8345 19.9432C23.8292 19.8969 23.8236 19.8467 23.8236 19.7937C23.8236 19.6858 23.702 19.6243 23.5654 19.5552C23.4176 19.4805 23.2521 19.3969 23.2038 19.2358C23.1325 18.9981 23.0792 18.7081 23.059 18.5777C23.0574 18.5676 23.0512 18.559 23.0421 18.5545L22.9973 18.5321C22.9863 18.5266 22.9795 18.5152 22.9802 18.5028C22.9938 18.244 23.0264 17.7167 23.0566 17.5236C23.0702 17.4367 23.0952 17.3393 23.1219 17.2351C23.1715 17.0421 23.227 16.8257 23.227 16.6093V16.1901C23.227 16.1808 23.2229 16.1721 23.2158 16.1661L23.1917 16.1461C23.1846 16.1402 23.1805 16.1314 23.1806 16.1222C23.1815 15.9479 23.1988 15.626 23.2968 15.3775C23.3081 15.3487 23.3191 15.3206 23.33 15.2929C23.416 15.0742 23.4933 14.8776 23.6377 14.5407C23.7592 14.257 23.8587 14.0234 23.9008 13.9243C23.9057 13.9128 23.9169 13.9054 23.9294 13.9054H24.1405C24.1647 13.9054 24.1809 13.9325 24.1717 13.9549C24.1461 14.0169 24.113 14.1241 24.0948 14.2695C24.0638 14.5175 24.025 14.8351 24.0173 15.0908C24.0113 15.287 23.9479 15.5178 23.9131 15.6207C23.9104 15.6287 23.9045 15.6351 23.8967 15.6386L23.8301 15.6689C23.8258 15.6709 23.822 15.6737 23.8199 15.6778C23.804 15.7078 23.7663 15.8297 23.7151 16.1367C23.6634 16.4473 23.7226 16.6938 23.7756 16.9143C23.794 16.9909 23.8116 17.0643 23.8236 17.1362C23.8602 17.3559 23.7396 18.0291 23.6718 18.353C23.6698 18.3627 23.6631 18.3702 23.6558 18.3768C23.6016 18.4256 23.5585 18.6167 23.5144 18.8119C23.4826 18.9529 23.4503 19.0961 23.413 19.1894C23.3508 19.3447 23.6003 19.4065 23.9113 19.4837C24.0656 19.522 24.2351 19.5641 24.3892 19.6232C24.5577 19.6878 24.6254 19.7484 24.6861 19.8025C24.7928 19.8979 24.8777 19.9739 25.4506 20.0183C26.1812 20.0749 26.1592 19.8757 26.142 19.72C26.1381 19.6842 26.1344 19.6508 26.1402 19.6232C26.1633 19.5135 25.9238 19.4166 25.6527 19.3071C25.5601 19.2697 25.4639 19.2308 25.3731 19.1894C25.0966 19.0631 24.9095 18.8052 24.8443 18.6813C24.8405 18.6743 24.8399 18.6661 24.8418 18.6581C24.8541 18.6074 24.867 18.4864 24.8385 18.3216C24.815 18.1848 24.7397 18.1944 24.681 18.202C24.6432 18.2068 24.6122 18.2108 24.6061 18.1744C24.5906 18.0814 24.6526 17.7792 24.7378 17.5236C24.8231 17.2679 24.9315 16.896 24.9857 16.5629C25.028 16.3033 25.0051 15.9981 24.9872 15.8679C24.9864 15.862 24.9814 15.8578 24.9755 15.8578C24.9637 15.8578 24.9443 15.8311 24.9458 15.8194C24.9513 15.7776 24.9548 15.7005 24.9548 15.5789C24.9391 15.3541 24.9516 15.3198 24.9971 15.1951C25.0191 15.135 25.0487 15.0539 25.0865 14.9203C25.1755 14.6058 25.2621 14.1715 25.2988 13.9696C25.3015 13.9548 25.3143 13.9442 25.3294 13.9438C25.5475 13.939 25.9271 13.877 26.1198 13.841C26.1358 13.838 26.1465 13.8233 26.1447 13.8072C26.1135 13.534 26.0309 12.9043 25.9232 12.3481C25.862 12.0317 25.8456 11.7018 25.8307 11.4025C25.8116 11.0202 25.7951 10.6876 25.6908 10.4964C25.542 10.2237 25.4997 10.1142 25.4971 10.0935V10.0316V9.52796C25.4971 9.42494 25.4791 9.27691 25.4578 9.10196C25.4167 8.76375 25.3633 8.32495 25.4041 7.91644C25.4498 7.45945 25.3937 6.94104 25.3523 6.68873C25.3483 6.66393 25.3736 6.64436 25.3973 6.65272C25.4482 6.67069 25.4751 6.67111 25.4877 6.66567C25.497 6.66161 25.4921 6.65029 25.4843 6.64368C25.3801 6.55511 25.1905 6.21925 25.0865 6.026C25.0229 5.90801 24.986 5.90965 24.9554 5.911C24.9337 5.91195 24.9153 5.91277 24.8928 5.87106C24.857 5.80465 24.8679 5.74069 24.883 5.70436C24.888 5.69233 24.9013 5.68702 24.9141 5.68937C25.0689 5.71776 25.0986 5.66543 25.1604 5.55673C25.1765 5.52834 25.1949 5.49609 25.2182 5.46042C25.2937 5.34499 25.2979 5.2957 25.3023 5.24404C25.3056 5.20556 25.3091 5.16574 25.3422 5.09629C25.365 5.04823 25.3845 5.01235 25.4016 4.98085C25.4425 4.90566 25.4698 4.85543 25.4971 4.72441C25.5201 4.61418 25.5349 4.59925 25.5544 4.57952C25.5678 4.56598 25.5835 4.55018 25.6056 4.49971C25.6316 4.44024 25.6309 4.42 25.629 4.3697C25.6271 4.31515 25.6238 4.22525 25.6521 4.01164C25.7063 3.632 25.3111 3.35313 24.9935 3.18264C24.7301 3.04125 24.3814 3.04317 24.0483 3.37632C23.7843 3.64032 23.8178 4.09842 23.8686 4.30033C23.8696 4.3042 23.8698 4.30804 23.8694 4.31202C23.8544 4.45009 23.9358 4.63491 23.9824 4.71761ZM22.7783 8.43924C22.8341 8.5044 22.9986 8.69624 22.9714 8.84614C22.9582 8.91863 22.9394 8.95748 22.9228 8.99191C22.9003 9.03844 22.8817 9.07687 22.8861 9.1793C22.8899 9.26505 22.9026 9.31671 22.9147 9.36623C22.9279 9.41961 22.9404 9.47051 22.9404 9.55892C22.9404 9.66378 22.9007 9.812 22.8671 9.91481C22.8581 9.94213 22.8215 9.94197 22.8126 9.91465C22.7882 9.83984 22.7622 9.74682 22.7622 9.69838C22.7622 9.67515 22.7668 9.64214 22.7722 9.60311C22.7868 9.49893 22.8073 9.35188 22.7622 9.23353C22.7492 9.19938 22.7375 9.1724 22.7277 9.14958C22.6906 9.06366 22.679 9.03668 22.7157 8.90812C22.7397 8.82402 22.7265 8.78339 22.7145 8.74664C22.7033 8.7123 22.6932 8.68134 22.7157 8.62146C22.7445 8.54472 22.7565 8.4816 22.7605 8.445C22.7614 8.43701 22.773 8.43314 22.7783 8.43924Z" fill="#068CEC"/>
</svg>
