<svg width="48" height="48" viewBox="0 0 48 48" fill="none" xmlns="http://www.w3.org/2000/svg">
<path d="M20.174 9.45588C20.2768 8.94595 20.1808 7.3679 20.174 7.14048C20.1705 7.02476 20.1236 6.8418 20.0643 6.64433C20.0453 6.6673 19.982 6.68706 19.9272 6.72013C19.8586 6.76149 19.7146 6.8235 19.6598 6.79594C19.6049 6.76837 19.5158 6.72013 19.5775 6.63055C19.6269 6.55889 19.8358 6.3618 19.934 6.27222L19.9272 6.20331C19.9043 6.20331 19.9272 6.1413 19.9272 6.1413C20.0026 6.07927 20.0917 6.12061 20.2905 6.07927C20.7087 5.95524 22.1416 5.54177 22.3816 5.40393C22.6215 5.26612 22.7861 5.16275 22.9917 5.01115C23.1974 4.85955 23.4922 4.76996 23.7322 4.80442C23.9241 4.83198 24.2235 4.84117 24.3561 4.84576C24.3561 4.84576 24.3891 4.53567 24.4315 4.41852C24.4739 4.30136 24.7606 4.0464 24.788 3.8879C24.8154 3.72941 24.7627 3.5901 24.5892 3.43309C24.452 3.30905 24.2052 3.30216 24.0955 3.32973C23.9858 3.35729 23.8487 3.52957 23.7802 3.59159C23.7116 3.65361 23.6842 3.59848 23.7048 3.56402C23.7253 3.52957 23.9241 3.28837 24.1367 3.24703C24.3492 3.20568 24.5549 3.27459 24.7126 3.44687C24.8703 3.61914 24.8771 3.8121 24.8634 3.90857C24.8497 4.00504 24.6097 4.27381 24.5206 4.40473C24.448 4.51133 24.4406 4.7332 24.4452 4.83887C24.4635 4.83657 24.5275 4.83335 24.6372 4.83887C24.7743 4.84576 24.9799 4.88021 25.1376 4.94223C25.2953 5.00425 25.5421 5.21788 25.7204 5.44528C25.8986 5.67269 27.5783 6.14128 27.7909 6.24465C28.0034 6.34802 28.4422 6.52718 28.5313 6.54785C28.6026 6.5644 28.6022 6.62366 28.593 6.65122C28.625 6.69716 28.7054 6.82488 28.7713 6.96822C28.8371 7.11154 28.7713 7.17035 28.7301 7.18184L28.4902 7.0509C28.4742 7.10833 28.4422 7.29761 28.4422 7.59529C28.4422 7.96742 28.2639 8.70476 28.2159 9.53169C28.1679 10.3586 28.1748 10.5585 28.4422 11.0546C28.6561 11.4515 29.0021 11.6978 29.1483 11.7713C29.0981 11.9045 28.9673 12.2743 28.8467 12.6878C28.6958 13.2046 28.3531 14.004 28.3531 14.2796C28.3531 14.5553 28.3599 15.0032 28.3531 15.1824C28.3462 15.3615 28.2159 15.7268 28.1748 15.8715C28.1337 16.0162 28.1748 16.0438 28.1748 16.2918C28.1748 16.5399 28.1611 16.5399 28.1748 16.8776C28.1885 17.2153 27.5852 17.4289 27.2767 17.6149C26.9682 17.801 25.7272 18.4074 25.2405 18.5452C24.7537 18.683 24.6303 18.7657 24.3492 18.8691C24.0681 18.9725 23.9996 18.8967 23.9516 18.7657C23.9132 18.661 23.9036 18.5751 23.9036 18.5452C23.7688 18.536 23.2303 18.435 22.1553 18.1042C20.8116 17.6907 20.0094 16.9534 20.0094 16.6777C20.0094 16.4021 20.1123 16.3539 20.0506 16.1333C20.0094 15.968 20.0643 15.9335 20.0917 15.8164C20.1191 15.6992 20.0369 15.4856 20.0094 15.2444C19.982 15.0032 19.9889 15.0239 19.9272 14.7344C19.8655 14.445 19.7901 14.3761 19.8106 14.1211C19.8312 13.8662 19.7009 13.7215 19.6049 13.4045C19.509 13.0875 18.9331 11.7506 18.8713 11.6473C18.8096 11.5439 18.9262 11.5301 19.077 11.4198C19.2279 11.3096 19.7558 10.7583 19.8997 10.524C20.0437 10.2897 20.0711 9.96583 20.174 9.45588Z" fill="#B7C8E1"/>
</svg>
