<svg width="48" height="49" viewBox="0 0 48 49" fill="none" xmlns="http://www.w3.org/2000/svg">
<path fill-rule="evenodd" clip-rule="evenodd" d="M18.5005 11.3782C17.5166 11.5988 15.5944 12.3527 15.7768 13.6028C16.0046 15.1654 18.6959 16.2832 19.3361 16.4676C19.3716 16.4779 19.4104 16.4892 19.4525 16.5015C20.1703 16.7115 21.8484 17.2026 24.3496 17.1513C26.9974 17.097 32.0218 16.0303 32.0218 13.8307C32.0218 12.981 31.6841 12.5361 30.8064 11.9859C31.2694 11.6929 32.178 10.9702 32.1086 10.4232C32.0218 9.73958 31.8264 9.38147 30.9909 9.42488C30.3224 9.4596 29.931 9.51895 29.8189 9.54428C29.8623 9.32001 29.7277 8.78032 28.8422 8.4157C27.7353 7.95993 25.0658 7.31967 21.6692 7.75374C18.2726 8.18781 18.0556 9.18624 18.0665 9.54428C18.0751 9.8307 18.3595 10.8862 18.5005 11.3782ZM29.4173 11.389C29.6199 11.4505 30.1031 11.5996 30.2854 11.7038C30.6616 11.4939 31.4726 10.9593 31.707 10.4992C32 9.92407 30.9572 9.72711 30.4048 10.0217C29.9629 10.2574 29.9565 10.262 29.71 10.4377C29.6841 10.4561 29.6555 10.4765 29.6235 10.4992C29.5873 10.7416 29.4607 11.2371 29.4173 11.389Z" fill="#3095FF"/>
</svg>
