<svg width="48" height="49" viewBox="0 0 48 49" fill="none" xmlns="http://www.w3.org/2000/svg">
<path fill-rule="evenodd" clip-rule="evenodd" d="M21.9709 9.09633C22.2469 8.49417 23.0849 7.19955 24.229 6.83825C24.4837 6.73403 25.1438 6.58927 25.2075 6.62982C25.2519 6.56998 25.3777 6.46073 25.5259 6.50242C25.6742 6.5441 25.7035 6.64715 25.6996 6.69346C25.8811 6.74172 26.2566 6.83825 26.3076 6.83825C26.3249 6.83825 26.3472 6.8323 26.3738 6.82524C26.4451 6.80624 26.5468 6.7792 26.6608 6.83825C26.7858 6.90306 26.8557 7.04664 26.875 7.11033L27.2108 7.32456C27.2822 7.33807 27.4436 7.39057 27.5177 7.49247C27.6103 7.61985 27.6682 7.78776 27.6509 7.87461L27.8246 8.01356C27.923 8.05602 28.1314 8.18958 28.1777 8.38412C28.2241 8.57866 28.2511 8.67361 28.2588 8.69678C28.2588 8.73537 28.3283 8.91448 28.6062 9.32209C28.9536 9.8316 29.3647 11.4412 29.272 12.9176C29.1794 14.3941 28.6641 15.5289 27.6509 16.3395C27.6509 16.4447 27.4988 16.7214 27.3451 16.7214C27.2273 16.7214 27.1957 16.7191 27.1674 16.7279C27.1512 16.7329 27.1361 16.7416 27.1066 16.7564C27.0239 16.7997 26.9285 16.8523 26.8342 16.9044C26.6513 17.0054 26.4728 17.104 26.4002 17.1269C26.3833 17.1322 26.3724 17.1457 26.3591 17.1621C26.3253 17.2036 26.2758 17.2646 26.0742 17.2646C25.8368 17.2646 25.746 17.1269 25.746 17.1269C25.6875 17.1269 25.6317 17.1279 25.577 17.1288C25.2089 17.1352 24.8959 17.1406 24.2406 16.8432C23.4879 16.5016 22.5383 15.6447 22.2315 14.7415C22.1041 14.6623 21.8794 14.4404 21.9999 14.1856L21.8378 13.8209C21.7007 13.8054 21.4012 13.7051 21.2993 13.4272C21.2472 13.5371 21.0492 13.7051 20.674 13.4966C20.2988 13.2882 20.0506 13.0624 19.9734 12.9755L18.9833 12.5702C18.8077 12.1012 18.4391 11.0776 18.3696 10.7348C18.3464 10.6268 18.4808 10.3376 19.2033 10.0458C19.8511 9.78422 20.2994 9.65663 20.5695 9.57975C20.676 9.54944 20.7548 9.52701 20.8072 9.50736C20.9554 9.45178 21.6448 9.21018 21.9709 9.09633ZM21.6062 10.3643C21.5656 10.3643 21.0329 10.3758 20.5119 10.6132C20.095 10.8031 19.9676 10.9355 19.956 10.978C20.1316 11.0127 20.5489 11.0718 20.8129 11.0301C21.143 10.978 21.2819 11.0301 21.2819 11.0301H21.5251L21.6062 10.3643Z" fill="#0FE6D1"/>
</svg>
