<svg width="48" height="48" viewBox="0 0 48 48" fill="none" xmlns="http://www.w3.org/2000/svg">
<path fill-rule="evenodd" clip-rule="evenodd" d="M35.282 8.77888C35.321 8.67909 35.3757 8.45084 35.282 8.33625C35.2471 8.29365 35.2318 8.26256 35.2197 8.23786C35.1911 8.17952 35.1799 8.15677 34.9695 8.10189C34.8715 8.07632 34.7763 8.04377 34.682 8.01155C34.4883 7.94533 34.2987 7.88051 34.0972 7.88051C33.9263 7.88051 33.8063 7.95265 33.7033 8.01457C33.6258 8.06112 33.558 8.10189 33.4853 8.10189C33.3161 8.10189 32.7172 8.32323 32.4438 8.45342C32.3044 8.51983 32.1988 8.60994 32.0735 8.71684C31.9532 8.81953 31.8147 8.93776 31.6106 9.06532C31.3589 9.22588 30.7982 9.5913 30.5691 9.76834C30.3588 9.93083 30.0886 10.1569 29.9516 10.2735C29.9356 10.2872 29.911 10.2808 29.904 10.2609C29.648 9.52936 28.7997 8.02093 27.3186 7.50393C27.3101 7.50097 27.3035 7.49468 27.3003 7.48624C27.0619 6.84351 26.1756 5.63588 24.4895 5.84664C22.3676 6.11188 22.0003 7.84153 21.9595 8.45342C21.9272 8.93788 21.9455 9.77203 21.9591 10.1402C21.9594 10.1477 21.9569 10.1546 21.9519 10.1602C21.8089 10.3163 21.3363 10.5922 20.5183 10.5104C20.4661 10.5052 20.412 10.4996 20.3562 10.4938C19.298 10.3843 17.6217 10.2109 16.6139 11.335C15.553 12.5183 15.4917 14.8851 17.4504 15.9256C19.4091 16.9662 22.2655 16.4153 23.1633 15.0687C24.0592 13.7248 24.63 12.1572 24.2064 10.3133C24.2048 10.3062 24.2056 10.2988 24.2092 10.2924C24.4843 9.79621 25.1325 8.83816 25.6156 8.80564C25.6346 8.80436 25.6482 8.82168 25.6437 8.84012C25.428 9.71916 25.1844 11.5767 25.8769 12.2531C26.7394 13.0955 27.7601 13.5239 29.1121 12.8402C29.1365 12.8279 29.1647 12.8515 29.1558 12.8773C28.9196 13.5578 28.6525 14.9751 29.306 15.7543C29.5914 16.0945 29.8277 16.35 30.0158 16.5532C30.3862 16.9535 30.5691 17.1511 30.5691 17.3946C30.5691 17.4384 30.5699 17.4815 30.5707 17.5236C30.5767 17.835 30.5817 18.0958 30.2451 18.2202C29.9004 18.3476 29.4737 18.1907 29.0881 18.0489C28.9867 18.0116 28.888 17.9753 28.7945 17.9455L28.7864 17.9429C28.3358 17.7996 27.5239 17.5412 26.591 18.1496C25.9608 18.5605 25.6698 18.9045 25.5684 19.0848C25.5542 19.1101 25.5807 19.1305 25.604 19.1131C26.0748 18.7597 27.0484 18.1496 27.7131 18.1496C28.181 18.1496 28.4401 18.3004 28.7192 18.4629C28.9635 18.6051 29.2231 18.7562 29.6514 18.8229C30.5691 18.9657 31.0704 18.6596 31.2336 18.1496C31.3969 17.6395 31.302 16.9813 30.692 16.3541C29.9181 15.5584 29.4882 14.6607 29.6514 13.9466C29.7459 13.5332 29.943 13.0924 30.108 12.7233C30.2261 12.4592 30.3278 12.2316 30.3638 12.0771C30.365 12.0721 30.3672 12.0676 30.3706 12.0638C30.7143 11.6847 31.4961 10.8746 31.9162 10.6209C32.3316 10.3699 32.6663 10.1519 32.7881 10.0701C32.792 10.0675 32.796 10.066 32.8007 10.0654C33.2412 10.0101 34.1941 9.83007 34.5377 9.54471C34.6651 9.43892 34.7675 9.36743 34.8527 9.30784C35.0566 9.1654 35.1632 9.09094 35.282 8.77888ZM27.492 9.15618C27.4809 9.15463 27.4709 9.16067 27.4659 9.17064C27.2354 9.62634 26.8676 10.6237 27.1818 11.095C27.5791 11.6911 28.3038 11.7962 28.7363 11.3872C28.8997 11.2326 29.0049 11.1368 29.0703 11.0797C29.0938 11.0592 29.1304 10.9211 29.1175 10.8927C28.9631 10.553 28.6364 9.96043 28.2458 9.62518C27.8375 9.27476 27.585 9.16906 27.492 9.15618ZM22.2505 11.8255C22.2719 11.8069 22.3087 11.8219 22.3069 11.8502C22.2625 12.5372 21.9143 13.8887 20.8039 14.4271C19.3554 15.1294 17.6435 14.2661 17.7166 13.1688C17.7898 12.0714 19.0774 12.1153 19.7797 12.2323C20.4471 12.3436 21.8148 12.2038 22.2505 11.8255Z" fill="#529AD4"/>
</svg>
