<svg width="48" height="48" viewBox="0 0 48 48" fill="none" xmlns="http://www.w3.org/2000/svg">
<path fill-rule="evenodd" clip-rule="evenodd" d="M23.0525 9.79699C22.6446 9.49843 21.3294 8.83291 19.3322 8.55932L19.2963 8.5544C16.819 8.21501 15.09 7.97815 15.1225 9.03159C15.1552 10.0901 16.6073 13.054 17.6679 13.1029C18.4569 13.1392 18.8461 12.9812 18.9668 12.8803C18.5862 13.2491 17.9025 14.1773 18.0432 15.1222C18.2006 16.1791 19.0482 16.4594 19.5405 16.6222C19.6096 16.645 19.6717 16.6656 19.7239 16.6856C20.1481 16.8485 21.7961 17.0602 22.7751 16.6856C23.181 16.4202 23.2988 15.4956 23.2725 14.9606C23.3301 15.4001 23.4694 16.0014 23.7215 16.0342C23.9735 16.0014 24.1129 15.4001 24.1704 14.9606C24.1442 15.4956 24.2619 16.4202 24.6678 16.6856C25.6468 17.0602 27.2948 16.8485 27.7191 16.6856C27.7713 16.6656 27.8333 16.645 27.9024 16.6222C28.3947 16.4594 29.2423 16.1791 29.3997 15.1222C29.5404 14.1773 28.8567 13.2491 28.4761 12.8803C28.5968 12.9812 28.986 13.1392 29.775 13.1029C30.8356 13.054 32.2878 10.0901 32.3204 9.03159C32.3529 7.97815 30.6239 8.21501 28.1466 8.5544L28.1107 8.55932C26.1135 8.83291 24.7984 9.49843 24.3905 9.79699C24.3905 9.74488 24.3034 9.72099 24.2599 9.71556C24.273 9.65042 24.2218 9.57985 24.1946 9.55271C24.2208 9.30518 24.0532 9.25415 23.9662 9.25958C24.0424 9.15644 24.2436 8.89479 24.4394 8.67331C24.5626 8.53393 24.934 8.20879 25.2849 7.90156C25.631 7.59856 25.9572 7.31299 26.0058 7.24022C26.0564 7.16445 26.1768 7.07128 26.2993 6.97645C26.4138 6.88783 26.5301 6.79776 26.5932 6.7191C26.7238 6.55624 26.5279 6.65396 26.3158 6.78424C26.159 6.88055 26.0557 7.01247 25.94 7.16025C25.8991 7.21237 25.8568 7.26645 25.81 7.32165C25.6981 7.45362 25.4023 7.71218 25.0926 7.9829C24.9055 8.14644 24.7134 8.31441 24.5536 8.46161C24.2142 8.77428 23.9662 9.12387 23.8846 9.25958L23.8031 9.21072C23.8031 9.18994 23.8052 9.15432 23.8078 9.11034C23.8155 8.98198 23.8274 8.78248 23.8031 8.67331C23.7769 8.55606 23.7378 8.86331 23.7215 9.03159C23.7051 8.86331 23.666 8.55606 23.6399 8.67331C23.6156 8.78248 23.6275 8.98198 23.6351 9.11034C23.6378 9.15432 23.6399 9.18994 23.6399 9.21072L23.5583 9.25958C23.4767 9.12387 23.2287 8.77428 22.8893 8.46161C22.7295 8.31441 22.5374 8.14644 22.3503 7.9829C22.0406 7.71218 21.7448 7.45362 21.6329 7.32165C21.5861 7.26645 21.5438 7.21237 21.503 7.16025C21.3872 7.01247 21.2839 6.88055 21.1271 6.78424C20.915 6.65396 20.7192 6.55624 20.8497 6.7191C20.9128 6.79776 21.0291 6.88783 21.1436 6.97645C21.2661 7.07128 21.3865 7.16445 21.4371 7.24022C21.4857 7.31299 21.8119 7.59856 22.158 7.90155C22.5089 8.20878 22.8803 8.53393 23.0035 8.67331C23.1993 8.89479 23.4006 9.15644 23.4767 9.25958C23.3897 9.25415 23.2222 9.30518 23.2483 9.55271C23.2211 9.57985 23.1699 9.65042 23.183 9.71556C23.1395 9.72099 23.0525 9.74488 23.0525 9.79699Z" fill="#7EB5D7"/>
</svg>
