<svg width="48" height="48" viewBox="0 0 48 48" fill="none" xmlns="http://www.w3.org/2000/svg">
<path d="M30.3169 10.4361C30.0782 10.6749 29.8328 11.2915 29.74 11.5699C29.7492 11.5434 29.8297 11.4585 30.0782 11.3312C30.3888 11.1721 30.4362 10.8538 30.5356 10.5555C30.6351 10.2571 31.8882 9.36202 32.3457 8.98409C32.8032 8.60616 32.7037 8.70561 32.7037 8.40724C32.7037 8.10888 32.7435 8.10891 32.9225 8.00943C33.1016 7.90995 33.3403 7.96964 33.7579 7.61161C34.1756 7.25357 34.1955 7.1939 34.7326 7.21378C35.2696 7.23368 35.3492 7.55196 35.1105 7.55196C34.8718 7.55196 34.1955 8.2879 33.8176 8.48681C33.4397 8.68572 32.9225 9.36202 32.5844 9.87918C32.2463 10.3963 31.5501 11.4903 30.9931 12.1866C30.4362 12.8827 29.7997 14.474 29.561 14.7525C29.3223 15.031 29.2428 15.1503 28.6659 15.9658C28.2045 16.6183 27.7045 16.967 27.5123 17.0599H29.4814C30.0782 17.0599 29.8991 16.9007 30.1776 16.9007C30.4561 16.9007 30.5754 16.9604 31.1324 17.0599C31.6893 17.1593 31.5699 17.2587 31.3512 17.3184C31.1324 17.3781 31.0329 17.4377 30.6948 17.5173C30.3566 17.5969 30.1975 17.6964 29.7997 17.6964C29.4019 17.6964 29.0439 17.8555 28.5068 17.935C27.9698 18.0146 27.8504 18.0146 27.2736 17.935C26.8121 17.8714 26.1796 17.9085 25.921 17.935C25.8282 18.0279 25.5709 18.2652 25.2845 18.4721C24.9265 18.7307 24.3497 18.8699 23.7927 18.7108C23.2358 18.5516 23.5341 18.7108 22.8579 18.4721C22.3169 18.2811 22.0092 17.8754 21.923 17.6964C21.923 17.6964 21.545 17.7361 21.4456 17.5173C21.3462 17.2985 21.3462 17.1195 21.1672 16.7416C20.9881 16.3636 20.6699 16.0653 20.1328 15.8266C19.5958 15.5879 18.8996 15.0707 18.7405 14.8917C18.5814 14.7127 18.5615 14.7723 18.2034 14.6132C17.8454 14.4541 17.1094 13.7977 16.9503 13.6187C16.7912 13.4397 16.1945 12.9225 16.0154 12.8231C15.8364 12.7236 15.6773 12.7634 15.5779 12.5247C15.4784 12.286 15.5182 12.3457 15.2596 12.0672C15.001 11.7887 15.0806 11.6694 14.8419 11.4108C14.6032 11.1522 14.7226 11.2119 14.8419 11.1124C14.9613 11.013 15.4585 11.5699 15.7967 11.7489C16.1348 11.9279 16.2343 12.0274 16.3735 12.3457C16.5127 12.6639 16.7116 12.644 17.368 12.9225C18.0244 13.201 18.5217 13.6187 18.7405 13.9171C18.9593 14.2154 19.5759 14.3149 20.2721 14.7723C20.829 15.1383 21.2865 15.2564 21.4456 15.2696C21.4523 15.2033 21.5013 15.0349 21.6445 14.8917C21.8235 14.7127 22.2413 14.8121 22.8579 14.8917C23.3512 14.9554 23.4347 15.2895 23.4148 15.4487L24.0513 15.5879C24.0645 15.5481 24.1428 15.3532 24.3497 14.8917C24.6082 14.3149 27.194 12.107 27.7311 11.7887C28.2681 11.4704 28.6659 11.0727 28.8648 10.4361C29.0638 9.79966 29.6207 9.24267 30.3169 8.70561C31.013 8.16855 31.6495 7.65139 31.7689 7.43259C31.8882 7.21378 31.8882 7.31324 32.2463 7.01488C32.6043 6.71651 32.8231 6.19937 33.1413 6.08002C33.4596 5.96068 33.4397 6.11981 33.7182 6.19937C33.9966 6.27893 33.937 6.3585 34.1955 6.43806C34.4541 6.51763 34.0563 6.65686 33.937 6.87566C33.8176 7.09446 33.201 7.39283 32.9225 7.55196C32.6441 7.71109 32.6639 7.94978 32.3457 8.1089C32.0339 8.26484 31.6838 8.63088 31.2581 9.07601L31.2318 9.10346C30.7942 9.56095 30.6152 10.1378 30.3169 10.4361Z" fill="#00A7FF"/>
</svg>
