<svg width="48" height="49" viewBox="0 0 48 49" fill="none" xmlns="http://www.w3.org/2000/svg">
<path fill-rule="evenodd" clip-rule="evenodd" d="M26.2211 6.1771C27.0601 6.69315 27.7749 7.54524 28.1202 8.44121C28.2265 8.71731 28.4228 9.0862 28.5564 9.26104C29.2315 10.1448 29.016 12.3889 28.0715 14.3106C27.8226 14.8171 25.9784 16.1681 25.3067 16.336C24.9896 16.4154 24.3612 16.5954 23.9101 16.736C23.2486 16.9422 22.9001 16.968 22.1087 16.8692C21.569 16.8019 20.9977 16.748 20.8392 16.7496C20.3223 16.7547 19.6142 16.3366 19.6142 16.0264C19.6142 15.7976 19.5507 15.7566 19.3128 15.8318C19.0719 15.908 19.0224 15.8738 19.066 15.6623C19.1029 15.4843 19.2137 15.4176 19.4035 15.4592C20.125 15.6168 21.6416 15.5046 21.8968 15.2749C22.0409 15.145 22.2186 15.0369 22.2917 15.0348C22.4636 15.0296 24.6409 12.8237 25.119 12.1703C25.6691 11.4187 26.3346 9.64705 26.3778 9.4748C26.3778 9.4748 26.6651 8.37667 26.6155 8.15437C26.5716 7.95716 26.5347 7.7152 26.5337 7.61652C26.5325 7.51798 26.4344 7.43724 26.3155 7.43724C26.1966 7.43724 26.0993 7.34244 26.0993 7.2264C26.0993 7.11052 25.9696 6.7858 25.8111 6.50497C25.3743 5.73105 25.4273 5.68874 26.2211 6.1771Z" fill="#92BAC3"/>
</svg>
