<svg width="48" height="49" viewBox="0 0 48 49" fill="none" xmlns="http://www.w3.org/2000/svg">
<path d="M24.147 3.51391C23.991 3.38495 23.9138 3.16541 23.9665 2.94454C24.0388 2.6416 24.3281 2.45086 24.6127 2.51852C24.8932 2.5852 25.0643 2.87809 24.9999 3.1766C25.0044 3.18153 25.0092 3.18653 25.0143 3.19159C25.0842 3.26131 25.1413 3.52497 25.1413 3.77758C25.1413 4.34409 25.5457 6.53876 25.7009 6.8149C25.8644 7.1056 25.7835 7.12858 25.2535 6.94198C24.7286 6.75723 24.0884 6.85813 23.7699 7.17588C23.5084 7.43691 23.4369 7.26377 23.6392 6.85967C23.857 6.42461 24.1843 4.94409 24.0947 4.7994C24.0589 4.74172 24.1031 4.54788 24.1927 4.36861C24.2852 4.18363 24.3121 4.01574 24.2549 3.9805C24.1995 3.94635 24.1541 3.77955 24.1541 3.60979C24.1541 3.57854 24.1516 3.54625 24.147 3.51391Z" fill="#59D0F3"/>
<path d="M24.8557 7.71591C24.9778 8.03342 24.9282 8.21665 24.7303 8.17866C24.6049 8.15459 24.5366 8.03792 24.5333 7.84221C24.5277 7.51901 24.747 7.43309 24.8557 7.71591Z" fill="#59D0F3"/>
<path fill-rule="evenodd" clip-rule="evenodd" d="M24.6631 9.40381C24.5629 9.40381 24.531 9.31363 24.5661 9.13019C24.6198 8.85011 24.3559 8.72883 24.2091 8.96601C24.1718 9.0262 23.9804 9.07547 23.7837 9.07547C23.3774 9.07547 22.3038 9.36986 22.0976 9.53777C21.8989 9.69974 21.9181 9.75273 22.3657 10.2745L22.7708 10.7468L22.5365 11.6897C22.4076 12.2082 22.2503 13.0765 22.1869 13.619C22.1236 14.1615 22.0013 14.8757 21.9151 15.206C21.7451 15.8581 21.3559 18.3752 21.2216 19.692L21.1379 20.5129L20.6493 20.5476C20.3038 20.5722 20.0795 20.6635 19.8832 20.8595L19.6055 21.1365L19.8972 21.387C20.1615 21.6138 20.4002 21.6522 21.0008 21.5647C21.046 21.558 21.083 21.4788 21.083 21.3885C21.083 21.1757 21.2907 21.1757 21.3724 21.3885C21.4072 21.4788 21.4797 21.5527 21.5335 21.5527C21.5874 21.5527 21.6315 21.4788 21.6315 21.3885C21.6315 21.1733 21.7042 21.1814 21.9668 21.4255C22.1643 21.6091 22.3609 21.6326 23.131 21.564C23.2015 21.5578 23.2919 21.4049 23.3316 21.2243C23.3713 21.0437 23.4519 20.896 23.5106 20.896C23.5773 20.896 23.5889 20.5473 23.5416 19.9656C23.4859 19.2814 23.5002 19.0353 23.5953 19.0353C23.9064 19.0353 24.2095 18.6016 24.0625 18.3667C23.9543 18.1938 23.9519 18.107 24.0517 17.987C24.1443 17.8757 24.146 17.8314 24.0579 17.8314C23.7465 17.8314 23.9845 17.6508 24.4328 17.5469C24.8699 17.4458 24.9227 17.4528 24.8637 17.6042C24.4345 18.7072 23.8252 20.3856 23.8252 20.4649C23.8252 20.5203 24.0103 20.4966 24.2365 20.4119C24.8593 20.1787 25.2511 20.1113 25.2511 20.2372C25.2511 20.2985 25.1984 20.3487 25.1341 20.3487C25.0668 20.3487 25.0466 20.4421 25.0866 20.5676C25.1642 20.8116 25.0358 20.8562 24.8343 20.6552C24.6663 20.4875 24.5001 20.6437 24.4591 21.0077C24.4338 21.2312 24.4719 21.2744 24.6752 21.253C24.8109 21.2387 24.922 21.2755 24.922 21.3351C24.922 21.3945 24.8233 21.4432 24.7027 21.4432C24.582 21.4432 24.4833 21.4925 24.4833 21.5527C24.4833 21.6845 24.9196 21.695 25.1204 21.568C25.2114 21.5103 25.2383 21.3755 25.1937 21.1985C25.0993 20.8229 25.2803 20.7394 25.7092 20.9606C25.9535 21.0867 26.0769 21.1052 26.1054 21.0199C26.1903 20.7659 26.3701 20.9023 26.3029 21.1696C26.265 21.3201 26.272 21.4488 26.3184 21.4557C26.86 21.5358 27.0963 21.5188 27.3008 21.3852C27.4339 21.2981 27.6117 21.2531 27.6956 21.2853C27.7797 21.3174 27.9111 21.2683 27.9878 21.1762C28.1118 21.027 28.1577 21.0324 28.404 21.2259C28.7336 21.4846 28.8877 21.5052 28.8007 21.279C28.7105 21.0444 28.9114 21.0763 29.1449 21.3338C29.413 21.6293 29.9676 21.6318 29.9676 21.3375C29.9676 20.8261 29.6159 20.3487 29.2392 20.3487C28.8254 20.3487 28.8153 20.3164 28.7083 18.6523C28.5385 16.0107 28.3028 14.7665 27.4773 12.1545C27.198 11.2708 27.0245 10.5515 27.0812 10.5127C27.5483 10.1928 27.7904 9.29434 27.4095 9.29434C27.2694 9.29434 26.9199 9.21446 26.6326 9.11683C26.0733 8.92661 25.3248 9.06922 25.6924 9.29588C25.778 9.34874 25.8127 9.42711 25.7696 9.47012C25.7265 9.51314 25.6007 9.46664 25.4899 9.3667C25.2443 9.14485 25.1414 9.1362 25.1414 9.33736C25.1414 9.4212 25.0674 9.51816 24.9769 9.55288C24.8864 9.58746 24.8123 9.56809 24.8123 9.50986C24.8123 9.45153 24.7451 9.40381 24.6631 9.40381ZM26.6419 14.0255C26.6419 13.9166 26.7895 13.8893 26.8272 13.9915C26.977 14.3983 27.1388 14.8639 27.1676 15.038C27.2 15.2343 27.2325 16.0157 27.2649 16.7971C27.2851 17.2821 27.3052 17.7672 27.3253 18.1123C27.3459 18.4646 27.3906 18.7926 27.4311 19.09C27.4941 19.5532 27.5471 19.9419 27.4831 20.2324C27.4026 20.5972 26.8354 20.4099 26.5254 20.2538C26.499 20.2405 26.4807 20.2155 26.4755 20.1864C26.3804 19.6478 26.4976 19.1611 26.5782 18.827C26.6136 18.6801 26.6419 18.5627 26.6419 18.4833V14.0255ZM23.172 15.8861C23.2314 15.5566 23.2244 15.0488 23.2028 14.6546C23.1971 14.5511 23.0673 14.5338 23.0356 14.6325C22.9222 14.9851 22.804 15.4327 22.804 15.7271V16.711C22.804 16.8265 22.9618 16.846 22.9885 16.7337C23.0593 16.4354 23.1298 16.1202 23.172 15.8861ZM22.738 18.8492C22.5146 19.194 22.1586 19.7757 22.1205 19.9674C22.0841 20.151 22.1502 20.2683 22.2027 20.3195C22.2167 20.333 22.2361 20.3384 22.2556 20.3384H23.0738C23.128 20.3384 23.172 20.2945 23.172 20.2401V19.4374C23.172 19.2314 23.0112 18.9884 22.8849 18.8377C22.8449 18.79 22.7718 18.797 22.738 18.8492Z" fill="#59D0F3"/>
</svg>
