<svg width="48" height="49" viewBox="0 0 48 49" fill="none" xmlns="http://www.w3.org/2000/svg">
<path d="M29.3895 10.2034C28.6707 9.93376 27.1617 10.091 26.4971 10.2034C26.5399 10.0288 26.5997 9.57722 26.4971 9.16804C26.369 8.6566 25.5476 8.20915 25.1275 8.04476C24.7073 7.88037 24.132 7.93527 23.6479 8.30976C23.1652 8.68313 23.2729 9.32924 23.3187 9.60446L23.3191 9.60673C23.3647 9.88072 23.4105 9.97205 23.3739 10.3556C23.3447 10.6625 23.4732 11.0051 23.5411 11.1381C23.1833 11.3667 22.8894 11.1838 22.3063 11.321C21.7232 11.4582 21.6568 12.1184 22.0404 12.1458C22.3473 12.1677 22.8638 12.2224 23.0837 12.2471C23.038 12.2662 22.8597 12.3934 22.5121 12.7502C22.0776 13.1961 21.7232 14.0078 21.7918 14.6138C21.8466 15.0986 22.4473 15.723 22.7408 15.9744C22.7483 16.0087 22.7454 16.1002 22.6722 16.1917C22.5807 16.306 22.0319 16.0316 21.4831 16.0773C20.9343 16.123 22.0319 16.9234 22.5121 17.072C22.8962 17.191 23.5967 16.9082 23.8989 16.7518C25.735 17.2108 26.8558 16.8868 28.2329 16.7518C29.6101 16.6168 29.9341 16.0092 31.0816 14.6321C32.2293 13.2549 31.5812 11.8373 31.3382 11.4323C31.0951 11.0272 30.2881 10.5403 29.3895 10.2034Z" fill="#133549"/>
<path d="M18.4104 12.365H18.8408C19.1108 12.365 18.7241 11.7302 18.5708 11.577C18.4177 11.4239 18.1477 11.3873 18.0529 11.3873C17.9581 11.3873 17.6297 11.32 17.3816 11.3873C17.1938 11.4384 17.5275 11.5362 17.7245 11.577C17.6783 11.599 17.5596 11.6427 17.4546 11.6427C17.2689 11.6427 17.3098 11.8373 17.4546 11.8566C17.5582 11.8704 18.0456 11.8616 18.2134 11.8907C18.3812 11.9199 18.4104 12.0658 18.3666 12.0658C18.3227 12.0658 18.1404 12.1448 17.8631 12.2336C17.5859 12.3225 17.6078 12.4744 17.7756 12.5036C17.9434 12.5328 18.2426 12.365 18.4104 12.365Z" fill="#133549"/>
</svg>
