<svg width="48" height="49" viewBox="0 0 48 49" fill="none" xmlns="http://www.w3.org/2000/svg">
<path d="M19.1146 12.2349C18.9839 12.4749 19.0057 12.6276 19.2453 12.7148C19.4849 12.8021 19.4413 12.7148 19.8334 12.453C20.2255 12.1912 20.073 12.1695 20.269 12.0604C20.4651 11.9514 20.6611 11.6679 20.9225 11.6024C21.1839 11.5369 21.3799 11.3188 21.5977 11.1662C21.772 11.044 21.8881 11.0862 21.9244 11.1225C21.8373 11.297 21.6631 12.2349 21.5977 12.8456C21.5324 13.4563 21.2057 14.3942 21.0532 14.8087C20.9007 15.2231 20.3997 15.6811 20.0077 16.3355C19.694 16.8589 19.4849 17.3097 19.4196 17.4697C19.559 17.6616 20.044 17.7387 20.269 17.7532C20.269 17.9713 20.3562 17.9713 20.5522 18.1022C20.7482 18.2331 20.5522 18.2767 20.4869 18.5602C20.4215 18.8438 21.1403 19.0837 21.7066 19.1491C22.1597 19.2015 22.273 18.9674 22.273 18.8438C22.3165 19.28 22.3601 19.2364 22.7739 19.3018C23.1878 19.3673 23.667 19.28 24.7778 19.2364C25.8887 19.1928 25.6056 19.0837 26.1937 18.9965C26.7818 18.9092 26.956 18.7347 27.3045 18.6475C27.5833 18.5777 27.7256 18.4585 27.7619 18.4075C27.8055 18.2331 27.6094 18.0586 27.5223 17.7532C27.4352 17.4478 27.5005 16.619 27.3916 16.2046C27.2827 15.7902 27.2174 15.4412 27.1738 14.9832C27.1302 14.5251 27.0867 14.2416 26.956 13.8271C26.8253 13.4127 26.7164 12.9547 26.6293 12.3876C26.5596 11.9339 26.5276 11.3552 26.5204 11.1225C26.76 11.5588 27.152 11.646 27.5223 11.8423C27.7837 11.9514 28.7203 12.1695 28.9599 11.995C29.1995 11.8205 28.6767 11.3624 28.4154 11.297C28.154 11.2316 28.154 11.1662 28.0015 11.0571C27.8795 10.9698 27.5731 10.948 27.4352 10.948C27.4003 10.6514 27.3045 10.4027 27.2609 10.3155C27.3699 10.1192 27.3045 10.0974 27.2609 9.87926C27.2174 9.66114 27.2827 9.22494 27.152 8.83231C27.0213 8.43972 26.956 8.37428 26.8035 8.00348C26.6511 7.63269 26.3025 7.34914 25.9758 7.28371C25.6491 7.21827 25.5838 7.21827 25.5402 6.97835C25.4966 6.73842 25.7798 6.80385 25.9323 6.58574C26.0542 6.41125 25.8814 6.324 25.7798 6.30219C25.8016 6.28038 25.8321 6.16696 25.7798 5.88777C25.7144 5.53879 25.8016 5.69147 25.8451 5.21162C25.8887 4.73176 25.4531 4.38283 25.2788 4.29559C25.1045 4.20834 24.5818 4.20834 24.2551 4.38283C23.9283 4.55733 23.9066 4.92812 23.7759 4.97175C23.6452 5.01537 23.6234 4.99356 23.4927 5.27711C23.362 5.56065 23.3838 5.90964 23.4056 6.12775C23.4274 6.34587 23.3185 6.25862 23.2749 6.47673C23.2313 6.69485 23.2749 6.73847 23.3185 6.93478C23.362 7.13108 23.166 7.08746 22.9918 7.15289C22.8175 7.21832 22.4908 7.24014 22.1423 7.41463C21.7938 7.58912 21.5759 8.33071 21.4453 8.85419C21.3146 9.37766 20.9661 9.57398 20.6176 9.81389C20.269 10.0538 20.3344 10.5555 20.3344 10.7082C20.3344 10.8608 20.2255 10.8826 20.0077 11.0353C19.8334 11.1575 19.8625 11.3334 19.8988 11.4061C19.8842 11.4425 19.8073 11.5457 19.6156 11.6679C19.376 11.8205 19.2453 11.995 19.1146 12.2349Z" fill="#71A9F3"/>
</svg>
