<svg width="48" height="49" viewBox="0 0 48 49" fill="none" xmlns="http://www.w3.org/2000/svg">
<path d="M19.8305 8.66456L20.7645 8.53413C20.7223 8.30912 20.6285 7.79962 20.5907 7.56174C20.5434 7.26438 20.6109 7.00833 20.614 6.78422C20.6171 6.56012 20.5964 6.24757 20.6821 6.04635C20.7678 5.84513 20.9548 5.44622 20.9866 5.30414C21.0184 5.16205 21.3521 4.80002 21.4629 4.56661L21.4663 4.55929C21.5741 4.33217 21.5973 4.28324 21.7709 4.18523C21.9464 4.08618 22.0952 4.00229 22.5517 3.97295C23.0082 3.94362 23.2074 4.1223 23.4514 4.18572C23.6954 4.24915 23.7269 4.434 23.9899 4.59228C24.2529 4.75055 24.506 5.00195 24.6763 5.23624C24.8467 5.47054 25.1081 5.61759 25.284 5.89126C25.4598 6.16493 25.536 6.21738 25.6405 6.43213C25.745 6.6469 25.8082 7.0167 25.9166 7.01304C26.0251 7.00936 26.2641 6.62614 26.3463 6.51715C26.4286 6.40816 26.4599 6.42674 26.7001 6.42186C26.9403 6.417 26.8593 6.37096 27.0411 6.27674C27.223 6.18253 27.6544 6.15091 27.8737 6.16048C28.093 6.17006 28.4386 6.09878 28.6276 6.015C28.8167 5.93122 29.2177 5.88673 29.4602 5.89874C29.7028 5.91074 30.072 6.25492 30.2782 6.33509C30.4844 6.41526 30.6048 6.45584 30.7289 6.56468C30.8531 6.67351 31.0854 7.39238 31.0761 7.53131C31.0668 7.67026 31.0346 7.68622 31.0511 8.09113C31.0675 8.49603 31.0354 8.71845 30.9929 8.94806C30.9504 9.17766 30.825 9.47047 30.8029 9.59973C30.7808 9.72899 30.5398 9.97484 30.4447 10.0741C30.3496 10.1735 30.0522 10.5075 29.898 10.7584C29.7437 11.0094 29.6771 10.9843 29.5265 11.1372C29.4059 11.2596 29.0596 11.5178 28.9015 11.6317C29.0876 11.7319 29.9563 12.6544 30.0896 12.911C30.2229 13.1677 30.3397 13.3579 30.4284 13.4889C30.5171 13.6199 30.5016 13.6851 30.4802 13.8602C30.4588 14.0352 30.5739 14.2027 30.5873 14.2983C30.6006 14.3939 30.658 14.558 30.6454 14.7146C30.6329 14.8712 30.6482 15.1042 30.6154 15.3324C30.5826 15.5607 30.606 15.7467 30.6353 15.8745C30.6647 16.0023 30.5281 16.2565 30.4459 16.3253C30.3638 16.3942 30.2502 16.4846 30.1422 16.6144C30.0341 16.7442 29.7507 16.973 29.5642 16.9933C29.3778 17.0136 29.2258 17.075 29.0313 17.1194C28.8367 17.1637 28.7351 17.0517 28.3913 17.0539C28.0474 17.056 27.9521 16.989 27.8059 16.9693C27.6598 16.9496 27.1928 16.7682 27.0621 16.6946C26.9314 16.6211 26.4597 16.4461 26.263 16.3933C26.1057 16.351 25.8909 16.1241 25.8031 16.0159C25.7779 16.1227 25.6514 16.2436 25.577 16.4088C25.5025 16.5741 25.2613 16.9002 25.1686 17.0164C25.0758 17.1326 24.8321 17.4821 24.7861 17.563C24.7401 17.644 24.6088 17.7312 24.4787 17.7723C24.3486 17.8134 24.3191 17.915 24.2361 17.9782C24.1532 18.0414 24.0671 18.0821 23.9623 18.1942C23.8576 18.3064 23.7717 18.2667 23.6197 18.3281C23.4677 18.3895 23.4609 18.5051 23.3372 18.5224C23.2134 18.5397 23.0724 18.5159 22.9152 18.5813C22.7581 18.6468 22.3536 18.872 22.0912 18.7997C21.8287 18.7274 21.9394 18.7807 21.7279 18.7037C21.5164 18.6266 21.3617 18.3395 21.2541 18.3086C21.1466 18.2778 20.9221 17.8618 20.8978 17.6874C20.8734 17.513 20.7362 17.4748 20.6581 17.285C20.5799 17.0951 20.5874 17.0253 20.5442 16.9625C20.501 16.8997 20.4997 16.8081 20.4696 16.6747C20.4395 16.5412 20.3776 16.5499 20.3575 16.3233C20.3373 16.0967 20.402 15.451 20.3855 15.3329C20.369 15.2148 20.2894 15.2202 20.3399 15.0066C20.3904 14.7931 20.4502 14.6873 20.4638 14.5619C20.4775 14.4365 20.4493 14.458 20.4987 14.3364C20.5382 14.2391 20.618 14.0122 20.6529 13.911C20.6047 13.9081 20.4796 13.8935 20.3655 13.8578C20.2228 13.8131 19.7443 13.7794 19.5573 13.7768C19.3702 13.7742 19.4473 13.5552 19.1294 13.5924C18.8115 13.6296 18.3041 13.3918 18.2864 13.265C18.2687 13.1382 17.932 12.8837 17.7843 12.8541C17.6365 12.8245 17.5857 12.6664 17.4643 12.5541C17.3428 12.4419 17.2049 12.2529 17.0577 12.0724C16.9105 11.892 17.0902 11.8956 17.0144 11.7626C16.9387 11.6296 17.0555 11.6473 17.0168 11.3706C16.9782 11.0939 16.9589 10.9555 17.2052 10.6987C17.4514 10.4418 17.3513 10.2306 17.807 9.83198C18.2627 9.43332 18.5623 9.17987 19.0421 8.95416C19.522 8.72846 19.3116 8.73702 19.8305 8.66456Z" fill="#4179FB"/>
</svg>
